<?xml version="1.0" encoding="iso-8859-1"?>
<!-- Generator: Adobe Illustrator 19.0.0, SVG Export Plug-In . SVG Version: 6.00 Build 0)  -->
<svg version="1.1" id="Layer_1" xmlns="http://www.w3.org/2000/svg" xmlns:xlink="http://www.w3.org/1999/xlink" x="0px" y="0px"
	 viewBox="0 0 512.001 512.001" style="enable-background:new 0 0 512.001 512.001;" xml:space="preserve">
<path style="fill:#5D9EBA;" d="M141.915,150.765c-40.389-9.041-66.554-26.047-66.554-54.826c0-48.407,74.015-87.662,165.319-87.662
	s165.319,39.255,165.319,87.662c0,28.779-26.165,45.784-66.554,54.826H141.915z"/>
<path style="fill:#508DA3;" d="M121.737,95.939c0-44.234,61.808-80.819,142.131-86.8c-7.578-0.564-15.317-0.862-23.188-0.862
	c-91.304,0-165.319,39.255-165.319,87.662c0,28.779,26.165,45.784,66.554,54.826h46.376
	C147.902,141.723,121.737,124.718,121.737,95.939z"/>
<rect x="353.397" y="265.802" style="fill:#AF7C38;" width="141.966" height="178.88"/>
<g>
	<path style="fill:#E0B394;" d="M124.28,241.852c-13.692-0.607-24.59-11.903-24.59-25.739c0-14.222,11.528-25.761,25.761-25.761
		c1.281,0,2.54,0.088,3.776,0.276L124.28,241.852z"/>
	<path style="fill:#E0B394;" d="M357.068,241.852c13.692-0.607,24.601-11.903,24.601-25.739c0-14.222-11.539-25.761-25.772-25.761
		c-1.281,0-2.551,0.099-3.776,0.276L357.068,241.852z"/>
</g>
<path style="fill:#5D9EBA;" d="M361.039,403.484v100.239H120.325V403.484c0-12.301,3.257-23.851,8.944-33.822
	c5.101-8.922,12.157-16.596,20.593-22.415c11.009-7.608,24.359-12.058,38.757-12.058h104.126
	C330.464,335.19,361.039,365.765,361.039,403.484z"/>
<path style="fill:#508DA3;" d="M230.691,335.19h-42.076c-37.715,0-68.29,30.574-68.29,68.29v100.24h42.076V403.48
	C162.401,365.764,192.976,335.19,230.691,335.19z"/>
<path style="fill:#F7CBA4;" d="M203.412,353.205l-45.326-32.932c-23.952-17.402-36.91-46.18-34.062-75.65l7.862-81.355
	c5.415-56.032,52.501-98.788,108.794-98.788l0,0c56.293,0,103.379,42.756,108.794,98.788l7.862,81.355
	c2.848,29.47-10.109,58.246-34.062,75.65l-45.326,32.932C255.725,369.35,225.634,369.35,203.412,353.205z"/>
<path style="fill:#F9C573;" d="M359.372,503.723h-50.616l-179.487-134.06c5.101-8.922,12.157-16.596,20.593-22.415L359.372,503.723z
	"/>
<path style="fill:#E0B394;" d="M152.23,260.656c-0.762,12.886,3.434,25.562,11.738,35.445l47.373,58.213
	c2.473,2.948,5.278,5.422,8.315,7.398c-5.698-1.988-11.174-4.836-16.243-8.513l-45.327-32.927
	c-23.95-17.402-36.902-46.177-34.053-75.648l7.851-81.357c5.366-55.486,51.588-97.953,107.162-98.759
	c-34.23,0.828-72.991,33.093-75.011,67.455L152.23,260.656z"/>
<path style="fill:#F9C573;" d="M343.869,98.98v36.538H137.506l0.298-36.748c0.066-8.8,6.316-16.353,14.962-18.02
	c12.698-2.462,25.518-4.373,38.393-5.753c45.868-4.903,92.565-2.97,137.759,5.808C337.608,82.494,343.869,90.135,343.869,98.98z"/>
<path style="fill:#E2AF66;" d="M191.413,135.518h-53.907l0.298-36.748c0.066-8.8,6.316-16.353,14.962-18.02
	c12.698-2.462,25.518-4.373,38.393-5.753L191.413,135.518z"/>
<polygon style="fill:#FCE8CA;" points="178.466,406.95 17.081,406.95 17.081,503.719 97.774,503.719 178.466,503.719 "/>
<g>
	<path style="fill:#AF7C38;" d="M290.527,268.946H240.68v6.885c0,12.806,10.382,23.188,23.188,23.188h49.847v-6.885
		C313.715,279.327,303.333,268.946,290.527,268.946z"/>
	<path style="fill:#AF7C38;" d="M190.833,268.946h49.847v6.885c0,12.806-10.382,23.188-23.188,23.188h-49.847v-6.885
		C167.645,279.327,178.027,268.946,190.833,268.946z"/>
</g>
<rect x="395.29" y="251.447" style="fill:#F9C573;" width="57.716" height="28.709"/>
<rect x="386.059" y="302.792" style="fill:#FCE8CA;" width="80.054" height="109.315"/>
<path d="M183.015,223.485v13.246c0,4.574,3.707,8.281,8.281,8.281c4.575,0,8.281-3.708,8.281-8.281v-13.246
	c0-4.574-3.707-8.281-8.281-8.281C186.722,215.203,183.015,218.911,183.015,223.485z"/>
<path d="M276.531,197.319c3.493-3.494,8.137-5.417,13.078-5.417c4.94,0,9.586,1.924,13.079,5.417
	c1.617,1.618,3.737,2.426,5.856,2.426s4.239-0.808,5.857-2.426c3.234-3.234,3.234-8.478-0.001-11.711
	c-6.621-6.622-15.426-10.268-24.789-10.268c-9.365,0-18.168,3.647-24.79,10.268c-3.234,3.234-3.234,8.478,0.001,11.711
	C268.052,200.554,273.296,200.553,276.531,197.319z"/>
<path d="M178.219,197.319c7.212-7.21,18.946-7.21,26.157,0c1.617,1.618,3.737,2.426,5.856,2.426s4.239-0.808,5.857-2.426
	c3.234-3.234,3.234-8.478-0.001-11.711c-13.669-13.669-35.91-13.669-49.578,0c-3.235,3.234-3.235,8.477-0.001,11.711
	S174.985,200.553,178.219,197.319z"/>
<path d="M281.327,223.485v13.246c0,4.574,3.707,8.281,8.281,8.281c4.575,0,8.281-3.708,8.281-8.281v-13.246
	c0-4.574-3.707-8.281-8.281-8.281C285.034,215.203,281.327,218.911,281.327,223.485z"/>
<path d="M145.282,340.076c-15.354,9.322-26.385,23.963-31.057,41.226c-1.195,4.415,1.414,8.963,5.829,10.158
	c0.724,0.197,1.452,0.29,2.17,0.29c3.648,0,6.99-2.429,7.988-6.119c3.558-13.14,11.962-24.291,23.666-31.397
	c3.909-2.373,5.154-7.467,2.781-11.377C154.286,338.947,149.193,337.702,145.282,340.076z"/>
<path d="M335.619,340.076c-3.909-2.372-9.002-1.127-11.378,2.781c-2.373,3.91-1.127,9.004,2.781,11.378
	c15.973,9.698,25.51,26.618,25.51,45.26v88.953l-178.36-133.213c-3.665-2.737-8.853-1.985-11.591,1.68
	c-2.737,3.664-1.985,8.853,1.679,11.591l169.952,126.933h-22.926l-101.906-76.11c-3.666-2.737-8.855-1.985-11.591,1.679
	c-2.737,3.664-1.985,8.853,1.679,11.591l84.139,62.841h-78.867c-4.575,0-8.281,3.708-8.281,8.281s3.707,8.281,8.281,8.281h156.074
	c4.575,0,8.281-3.708,8.281-8.281V399.495C369.096,375.015,356.581,352.803,335.619,340.076z"/>
<path d="M124.411,154.795c-0.415,2.544-0.749,5.106-0.998,7.681l-1.914,19.804c-17.026,1.862-30.318,16.322-30.318,33.835
	c0,15.321,10.048,28.296,24.044,32.561c-1.312,30.56,12.868,60.213,37.766,78.304l45.324,32.925
	c12.603,9.164,27.369,13.746,42.138,13.745c14.765,0,29.534-4.581,42.133-13.743l45.327-32.928
	c24.898-18.091,39.08-47.745,37.766-78.306c13.996-4.268,24.043-17.241,24.043-32.557c0-17.508-13.292-31.966-30.317-33.834
	l-1.914-19.807c-0.25-2.576-0.583-5.14-0.999-7.685c38.204-11.665,57.563-31.436,57.563-58.845c0-26.625-18.759-51.237-52.821-69.3
	C328.836,9.462,285.942,0,240.456,0s-88.38,9.462-120.779,26.643c-34.063,18.062-52.823,42.674-52.823,69.3
	C66.854,123.345,86.212,143.118,124.411,154.795z M335.36,127.239H145.625l0.231-28.399c0.04-4.856,3.512-9.048,8.256-9.965
	c56.599-10.948,116.424-10.927,173.005,0.06c4.777,0.928,8.244,5.152,8.244,10.046v28.259H335.36z M107.745,216.113
	c0-7.757,5.084-14.342,12.092-16.62l-3.084,31.919C111.364,228.43,107.745,222.7,107.745,216.113z M318.18,313.577l-45.331,32.929
	c-19.378,14.091-45.416,14.088-64.795-0.002l-45.327-32.927c-21.484-15.611-33.244-41.725-30.69-68.152l7.862-81.355
	c0.669-6.909,2.046-13.702,4.082-20.268h192.945c2.036,6.567,3.412,13.359,4.082,20.266l7.862,81.358
	C351.424,271.853,339.664,297.967,318.18,313.577z M373.16,216.113c0,6.582-3.618,12.313-9.007,15.295l-3.084-31.912
	C368.079,201.776,373.16,208.359,373.16,216.113z M127.436,41.276c30.052-15.937,70.19-24.713,113.02-24.713
	s82.968,8.776,113.02,24.713c28.386,15.052,44.018,34.467,44.018,54.668c0,19.341-14.695,33.351-44.831,42.698
	c-0.253-0.81-0.502-1.623-0.774-2.428c0.019-0.229,0.035-0.458,0.035-0.692V98.98c0-12.806-9.105-23.868-21.649-26.304
	c-58.646-11.388-120.65-11.41-179.309-0.062c-12.453,2.409-21.567,13.382-21.672,26.091l-0.299,36.748
	c-0.002,0.248,0.011,0.495,0.031,0.74c-0.274,0.814-0.527,1.634-0.783,2.455c-30.132-9.357-44.825-23.369-44.825-42.705
	C83.417,75.743,99.049,56.328,127.436,41.276z"/>
<path d="M343.317,411.679c0-4.574-3.707-8.281-8.281-8.281h-43.064c-4.575,0-8.281,3.708-8.281,8.281s3.707,8.281,8.281,8.281
	h43.064C339.61,419.961,343.317,416.253,343.317,411.679z"/>
<path d="M186.485,406.226c-0.011-0.123-0.028-0.244-0.043-0.365c-0.02-0.146-0.04-0.292-0.067-0.437
	c-0.023-0.128-0.053-0.254-0.083-0.381c-0.032-0.136-0.065-0.271-0.104-0.404c-0.039-0.131-0.082-0.259-0.126-0.389
	c-0.043-0.125-0.087-0.248-0.136-0.372c-0.053-0.134-0.113-0.264-0.172-0.393c-0.053-0.114-0.105-0.227-0.163-0.339
	c-0.071-0.136-0.147-0.267-0.224-0.399c-0.06-0.102-0.118-0.202-0.183-0.301c-0.089-0.137-0.184-0.268-0.282-0.4
	c-0.047-0.065-0.089-0.134-0.139-0.198c-0.02-0.025-0.043-0.047-0.063-0.073c-0.099-0.124-0.204-0.241-0.31-0.358
	c-0.081-0.089-0.16-0.182-0.243-0.267c-0.093-0.095-0.193-0.183-0.29-0.274c-0.104-0.096-0.205-0.195-0.314-0.285
	c-0.086-0.072-0.178-0.137-0.267-0.205c-0.125-0.095-0.247-0.193-0.375-0.28c-0.094-0.064-0.194-0.12-0.29-0.181
	c-0.128-0.079-0.255-0.162-0.388-0.235c-0.125-0.068-0.255-0.127-0.383-0.189c-0.109-0.052-0.215-0.109-0.327-0.157
	c-0.157-0.067-0.319-0.124-0.48-0.181c-0.088-0.031-0.174-0.068-0.264-0.096c-0.165-0.053-0.333-0.093-0.501-0.136
	c-0.093-0.023-0.184-0.051-0.277-0.071c-0.15-0.032-0.304-0.054-0.457-0.078c-0.118-0.019-0.235-0.041-0.354-0.054
	c-0.13-0.014-0.263-0.021-0.395-0.029c-0.146-0.01-0.292-0.021-0.438-0.022c-0.035,0-0.068-0.006-0.104-0.006H16.855
	c-0.032,0-0.062,0.004-0.094,0.004c-0.161,0.001-0.321,0.013-0.481,0.024c-0.118,0.008-0.236,0.013-0.353,0.025
	c-0.136,0.015-0.269,0.04-0.404,0.062c-0.137,0.022-0.274,0.041-0.407,0.07c-0.113,0.024-0.223,0.057-0.335,0.086
	c-0.149,0.039-0.299,0.074-0.445,0.12c-0.108,0.034-0.213,0.078-0.32,0.117c-0.142,0.052-0.287,0.102-0.426,0.161
	c-0.125,0.053-0.244,0.117-0.365,0.176c-0.116,0.057-0.234,0.109-0.346,0.171c-0.139,0.076-0.273,0.163-0.409,0.248
	c-0.089,0.056-0.183,0.108-0.271,0.168c-0.131,0.089-0.257,0.19-0.384,0.287c-0.086,0.066-0.176,0.129-0.259,0.2
	c-0.108,0.091-0.211,0.19-0.315,0.286c-0.097,0.091-0.197,0.178-0.289,0.273c-0.084,0.086-0.162,0.178-0.243,0.268
	c-0.106,0.117-0.211,0.234-0.31,0.358c-0.02,0.025-0.043,0.047-0.063,0.073c-0.05,0.064-0.092,0.132-0.139,0.198
	c-0.097,0.131-0.192,0.263-0.282,0.4c-0.064,0.099-0.124,0.2-0.183,0.301c-0.077,0.131-0.153,0.263-0.224,0.399
	c-0.059,0.113-0.112,0.226-0.163,0.34c-0.06,0.129-0.118,0.258-0.171,0.392c-0.05,0.124-0.093,0.247-0.137,0.372
	c-0.045,0.128-0.088,0.257-0.126,0.389c-0.039,0.134-0.072,0.267-0.104,0.402c-0.03,0.127-0.06,0.253-0.083,0.382
	c-0.028,0.146-0.047,0.29-0.067,0.437c-0.015,0.121-0.032,0.243-0.043,0.365c-0.013,0.158-0.02,0.316-0.024,0.474
	c-0.002,0.084-0.012,0.167-0.012,0.251v96.768c0,4.574,3.707,8.281,8.281,8.281h26.038c4.575,0,8.281-3.708,8.281-8.281
	s-3.707-8.281-8.281-8.281H25.136v-71.494l67.308,52.655c1.498,1.173,3.3,1.759,5.102,1.759c1.802,0,3.604-0.586,5.102-1.759
	l67.308-52.655v71.494H69.394c-4.575,0-8.281,3.708-8.281,8.281S64.819,512,69.394,512H178.24c4.575,0,8.281-3.708,8.281-8.281
	V406.95c0-0.085-0.01-0.167-0.012-0.251C186.505,406.54,186.498,406.384,186.485,406.226z M97.547,459.56L40.882,415.23h113.331
	L97.547,459.56z"/>
<path d="M290.299,260.664h-31.485c1.664-3.005,2.618-6.455,2.618-10.127v-39.199c0-4.574-3.707-8.281-8.281-8.281
	c-4.575,0-8.281,3.708-8.281,8.281v39.199c0,2.436-1.981,4.417-4.417,4.417s-4.417-1.981-4.417-4.417v-39.199
	c0-4.574-3.707-8.281-8.281-8.281c-4.575,0-8.281,3.708-8.281,8.281v39.199c0,3.671,0.954,7.121,2.618,10.127h-31.483
	c-17.352,0-31.47,14.117-31.47,31.47v6.885c0,4.574,3.707,8.281,8.281,8.281h49.847c9.168,0,17.431-3.943,23.188-10.22
	c5.757,6.277,14.02,10.22,23.188,10.22h49.847c4.575,0,8.281-3.708,8.281-8.281v-6.885
	C321.769,274.781,307.652,260.664,290.299,260.664z M217.265,290.737h-41.5c0.707-7.568,7.093-13.51,14.841-13.51h41.5
	C231.401,284.794,225.014,290.737,217.265,290.737z M263.642,290.737c-7.749,0-14.136-5.943-14.841-13.51h41.5
	c7.749,0,14.136,5.943,14.841,13.51H263.642z"/>
<path d="M252.605,100.721h-24.292c-4.575,0-8.281,3.708-8.281,8.281s3.707,8.281,8.281,8.281h24.292
	c4.575,0,8.281-3.708,8.281-8.281S257.179,100.721,252.605,100.721z"/>
<path d="M495.144,308.744c-4.575,0-8.281,3.708-8.281,8.281v119.371H389.14c-4.575,0-8.281,3.708-8.281,8.281
	c0,4.574,3.707,8.281,8.281,8.281h106.004c4.575,0,8.281-3.708,8.281-8.281V317.026
	C503.425,312.452,499.719,308.744,495.144,308.744z"/>
<path d="M495.144,257.517h-34.082v-6.073c0-4.574-3.707-8.281-8.281-8.281h-57.714c-4.575,0-8.281,3.708-8.281,8.281v6.073h-6.477
	c-4.575,0-8.281,3.708-8.281,8.281s3.707,8.281,8.281,8.281h6.477v6.073c0,4.574,3.707,8.281,8.281,8.281h57.714
	c4.575,0,8.281-3.708,8.281-8.281v-6.073h25.801v15.341c0,4.574,3.707,8.281,8.281,8.281s8.281-3.708,8.281-8.281v-23.622
	C503.425,261.225,499.719,257.517,495.144,257.517z M444.499,271.872h-41.151v-12.146h41.151V271.872z"/>
<path d="M465.883,420.386c4.575,0,8.281-3.708,8.281-8.281V302.789c0-4.574-3.707-8.281-8.281-8.281h-80.054
	c-4.575,0-8.281,3.708-8.281,8.281v109.315c0,4.574,3.707,8.281,8.281,8.281H465.883z M394.11,311.071h63.491v92.752H394.11V311.071
	z"/>
<path d="M440.21,323.769h-28.709c-4.575,0-8.281,3.708-8.281,8.281s3.707,8.281,8.281,8.281h28.709c4.575,0,8.281-3.708,8.281-8.281
	S444.785,323.769,440.21,323.769z"/>
<path d="M440.21,349.165h-28.709c-4.575,0-8.281,3.708-8.281,8.281s3.707,8.281,8.281,8.281h28.709c4.575,0,8.281-3.708,8.281-8.281
	S444.785,349.165,440.21,349.165z"/>
<circle cx="314.055" cy="434.865" r="8.281"/>
<g>
</g>
<g>
</g>
<g>
</g>
<g>
</g>
<g>
</g>
<g>
</g>
<g>
</g>
<g>
</g>
<g>
</g>
<g>
</g>
<g>
</g>
<g>
</g>
<g>
</g>
<g>
</g>
<g>
</g>
</svg>
